<svg xmlns="http://www.w3.org/2000/svg" width="1200" height="360" viewBox="0 0 1200 360" role="img" aria-labelledby="title desc">
  <title id="title">Folirina</title>
  <desc id="desc">Folirina manga translation transfer studio banner</desc>
  <defs>
    <linearGradient id="bg" x1="0" y1="0" x2="1" y2="1">
      <stop offset="0" stop-color="#fff8fc"/>
      <stop offset="0.52" stop-color="#f5efff"/>
      <stop offset="1" stop-color="#eef6ff"/>
    </linearGradient>
    <linearGradient id="accent" x1="0" y1="0" x2="1" y2="1">
      <stop offset="0" stop-color="#d76aa5"/>
      <stop offset="1" stop-color="#7867d9"/>
    </linearGradient>
    <filter id="shadow" x="-20%" y="-20%" width="140%" height="140%">
      <feDropShadow dx="0" dy="10" stdDeviation="16" flood-color="#4e3d6f" flood-opacity="0.12"/>
    </filter>
  </defs>

  <rect width="1200" height="360" rx="30" fill="url(#bg)"/>
  <circle cx="1060" cy="70" r="150" fill="#ffffff" opacity="0.5"/>
  <circle cx="90" cy="330" r="170" fill="#f5d9e9" opacity="0.38"/>

  <g transform="translate(72 56)" filter="url(#shadow)">
    <rect x="0" y="0" width="230" height="248" rx="20" fill="#ffffff"/>
    <rect x="24" y="24" width="182" height="200" rx="12" fill="#faf7fb" stroke="#e6dbe8" stroke-width="2"/>
    <path d="M48 70h132M48 103h96M48 136h118M48 169h82" stroke="#c4b6c8" stroke-width="9" stroke-linecap="round"/>
    <path d="M164 180c22 0 38 12 38 28 0 14-13 24-31 24h-22l-14 13 4-13c-14-4-22-13-22-24 0-16 20-28 47-28z" fill="#f3e5ee" stroke="#d49ab8" stroke-width="2"/>
  </g>

  <g transform="translate(930 70) rotate(4 95 110)" filter="url(#shadow)">
    <rect width="190" height="220" rx="18" fill="#ffffff"/>
    <rect x="22" y="22" width="146" height="176" rx="10" fill="#f4f1fb" stroke="#ded7ef" stroke-width="2"/>
    <path d="M45 66h100M45 96h74M45 126h94" stroke="#aaa0c6" stroke-width="8" stroke-linecap="round"/>
    <path d="M45 161h84" stroke="url(#accent)" stroke-width="10" stroke-linecap="round"/>
  </g>

  <g transform="translate(346 92)">
    <text x="0" y="74" font-family="Inter, ui-sans-serif, -apple-system, BlinkMacSystemFont, 'Segoe UI', sans-serif" font-size="82" font-weight="750" letter-spacing="1" fill="#30263f">Folirina</text>
    <rect x="2" y="95" width="490" height="6" rx="3" fill="url(#accent)" opacity="0.86"/>
    <text x="2" y="145" font-family="Inter, ui-sans-serif, -apple-system, BlinkMacSystemFont, 'Segoe UI', sans-serif" font-size="25" font-weight="600" fill="#665a73">Manga Translation Transfer Studio</text>
    <text x="2" y="186" font-family="Inter, ui-sans-serif, -apple-system, BlinkMacSystemFont, 'Segoe UI', sans-serif" font-size="20" fill="#7f748a">文字迁移 · 清理 · 重排 · 人工复核 · 本地处理</text>
  </g>
</svg>
